<svg width="520" height="520" viewBox="0 0 520 520" fill="none" xmlns="http://www.w3.org/2000/svg">
<g filter="url(#filter0_d_1_65)">
<rect x="4" width="512" height="512" rx="15" fill="#0074D9"/>
<path d="M38.3267 230.925V211.909H127.922V230.925H94.5234V321H71.7251V230.925H38.3267ZM165.733 321L134.518 211.909H159.714L177.771 287.708H178.677L198.599 211.909H220.172L240.04 287.868H240.999L259.057 211.909H284.252L253.038 321H230.559L209.785 249.675H208.933L188.212 321H165.733ZM389.193 266.455C389.193 278.351 386.938 288.472 382.428 296.817C377.954 305.162 371.846 311.536 364.104 315.94C356.398 320.308 347.733 322.491 338.11 322.491C328.415 322.491 319.715 320.29 312.009 315.886C304.303 311.483 298.213 305.109 293.738 296.763C289.264 288.418 287.027 278.315 287.027 266.455C287.027 254.558 289.264 244.438 293.738 236.092C298.213 227.747 304.303 221.391 312.009 217.023C319.715 212.619 328.415 210.418 338.11 210.418C347.733 210.418 356.398 212.619 364.104 217.023C371.846 221.391 377.954 227.747 382.428 236.092C386.938 244.438 389.193 254.558 389.193 266.455ZM365.809 266.455C365.809 258.749 364.655 252.25 362.346 246.959C360.074 241.668 356.86 237.655 352.705 234.92C348.55 232.186 343.685 230.819 338.11 230.819C332.535 230.819 327.67 232.186 323.515 234.92C319.36 237.655 316.128 241.668 313.82 246.959C311.547 252.25 310.411 258.749 310.411 266.455C310.411 274.161 311.547 280.659 313.82 285.95C316.128 291.241 319.36 295.254 323.515 297.989C327.67 300.723 332.535 302.09 338.11 302.09C343.685 302.09 348.55 300.723 352.705 297.989C356.86 295.254 360.074 291.241 362.346 285.95C364.655 280.659 365.809 274.161 365.809 266.455ZM42.4815 471V361.909H85.5213C93.7955 361.909 100.844 363.489 106.668 366.65C112.492 369.775 116.931 374.125 119.985 379.7C123.075 385.24 124.619 391.632 124.619 398.876C124.619 406.121 123.057 412.513 119.932 418.053C116.807 423.592 112.279 427.907 106.349 430.996C100.454 434.086 93.3161 435.631 84.9354 435.631H57.5028V417.147H81.2067C85.6456 417.147 89.3033 416.384 92.1797 414.857C95.0916 413.294 97.2578 411.146 98.6783 408.411C100.134 405.641 100.862 402.463 100.862 398.876C100.862 395.254 100.134 392.094 98.6783 389.395C97.2578 386.661 95.0916 384.548 92.1797 383.056C89.2678 381.529 85.5746 380.766 81.1001 380.766H65.5462V471H42.4815ZM161.165 361.909V471H138.101V361.909H161.165ZM178.642 471V361.909H201.706V451.984H248.475V471H178.642ZM262.249 471V361.909H285.314V451.984H332.082V471H262.249ZM405.036 393.283C404.61 388.987 402.781 385.648 399.55 383.269C396.318 380.89 391.933 379.7 386.393 379.7C382.629 379.7 379.45 380.233 376.858 381.298C374.266 382.328 372.277 383.766 370.892 385.613C369.543 387.46 368.868 389.555 368.868 391.898C368.797 393.852 369.205 395.556 370.093 397.012C371.016 398.468 372.277 399.729 373.875 400.794C375.473 401.824 377.32 402.729 379.415 403.511C381.51 404.256 383.747 404.896 386.126 405.428L395.928 407.772C400.686 408.837 405.054 410.258 409.031 412.033C413.009 413.809 416.453 415.993 419.365 418.585C422.277 421.178 424.532 424.232 426.13 427.747C427.763 431.263 428.598 435.293 428.634 439.839C428.598 446.515 426.893 452.303 423.52 457.204C420.182 462.069 415.352 465.851 409.031 468.55C402.746 471.213 395.164 472.545 386.286 472.545C377.479 472.545 369.809 471.195 363.275 468.496C356.776 465.798 351.698 461.803 348.04 456.511C344.418 451.185 342.518 444.597 342.341 436.749H364.66C364.908 440.407 365.956 443.461 367.803 445.911C369.685 448.326 372.188 450.155 375.313 451.398C378.474 452.605 382.043 453.209 386.02 453.209C389.926 453.209 393.317 452.641 396.194 451.504C399.106 450.368 401.361 448.788 402.959 446.763C404.557 444.739 405.356 442.413 405.356 439.786C405.356 437.335 404.628 435.276 403.172 433.607C401.751 431.937 399.656 430.517 396.886 429.345C394.152 428.173 390.796 427.108 386.819 426.149L374.94 423.166C365.743 420.929 358.481 417.431 353.154 412.673C347.827 407.914 345.182 401.504 345.217 393.443C345.182 386.838 346.94 381.067 350.491 376.131C354.077 371.195 358.996 367.342 365.246 364.572C371.496 361.803 378.598 360.418 386.553 360.418C394.649 360.418 401.716 361.803 407.753 364.572C413.825 367.342 418.548 371.195 421.922 376.131C425.295 381.067 427.036 386.785 427.142 393.283H405.036ZM455.485 472.385C451.969 472.385 448.951 471.142 446.43 468.656C443.944 466.135 442.701 463.116 442.701 459.601C442.701 456.121 443.944 453.138 446.43 450.652C448.951 448.166 451.969 446.923 455.485 446.923C458.894 446.923 461.877 448.166 464.434 450.652C466.991 453.138 468.269 456.121 468.269 459.601C468.269 461.945 467.665 464.093 466.458 466.046C465.286 467.964 463.741 469.509 461.824 470.68C459.906 471.817 457.793 472.385 455.485 472.385Z" fill="#FFDC00"/>
</g>
<defs>
<filter id="filter0_d_1_65" x="0" y="0" width="520" height="520" filterUnits="userSpaceOnUse" color-interpolation-filters="sRGB">
<feFlood flood-opacity="0" result="BackgroundImageFix"/>
<feColorMatrix in="SourceAlpha" type="matrix" values="0 0 0 0 0 0 0 0 0 0 0 0 0 0 0 0 0 0 127 0" result="hardAlpha"/>
<feOffset dy="4"/>
<feGaussianBlur stdDeviation="2"/>
<feComposite in2="hardAlpha" operator="out"/>
<feColorMatrix type="matrix" values="0 0 0 0 0 0 0 0 0 0 0 0 0 0 0 0 0 0 0.25 0"/>
<feBlend mode="normal" in2="BackgroundImageFix" result="effect1_dropShadow_1_65"/>
<feBlend mode="normal" in="SourceGraphic" in2="effect1_dropShadow_1_65" result="shape"/>
</filter>
</defs>
</svg>
