<svg width="484" height="271" viewBox="0 0 484 271" fill="none" xmlns="http://www.w3.org/2000/svg">
<g filter="url(#filter0_d_1_67)">
<path d="M4.3267 20.9254V1.90909H93.9219V20.9254H60.5234V111H37.7251V20.9254H4.3267ZM140.733 111L109.518 1.90909H134.714L152.771 77.7081H153.677L173.599 1.90909H195.172L215.04 77.8679H215.999L234.057 1.90909H259.252L228.038 111H205.559L184.785 39.6754H183.933L163.212 111H140.733ZM373.193 56.4545C373.193 68.3509 370.938 78.4716 366.428 86.8168C361.954 95.1619 355.846 101.536 348.104 105.94C340.398 110.308 331.733 112.491 322.11 112.491C312.415 112.491 303.715 110.29 296.009 105.886C288.303 101.483 282.213 95.1087 277.738 86.7635C273.264 78.4183 271.027 68.3153 271.027 56.4545C271.027 44.5582 273.264 34.4375 277.738 26.0923C282.213 17.7472 288.303 11.3906 296.009 7.02273C303.715 2.61932 312.415 0.41761 322.11 0.41761C331.733 0.41761 340.398 2.61932 348.104 7.02273C355.846 11.3906 361.954 17.7472 366.428 26.0923C370.938 34.4375 373.193 44.5582 373.193 56.4545ZM349.809 56.4545C349.809 48.7486 348.655 42.25 346.346 36.9588C344.074 31.6676 340.86 27.6548 336.705 24.9205C332.55 22.1861 327.685 20.8189 322.11 20.8189C316.535 20.8189 311.67 22.1861 307.515 24.9205C303.36 27.6548 300.128 31.6676 297.82 36.9588C295.547 42.25 294.411 48.7486 294.411 56.4545C294.411 64.1605 295.547 70.6591 297.82 75.9503C300.128 81.2415 303.36 85.2543 307.515 87.9886C311.67 90.723 316.535 92.0902 322.11 92.0902C327.685 92.0902 332.55 90.723 336.705 87.9886C340.86 85.2543 344.074 81.2415 346.346 75.9503C348.655 70.6591 349.809 64.1605 349.809 56.4545ZM8.48153 261V151.909H51.5213C59.7955 151.909 66.8445 153.489 72.6683 156.65C78.4922 159.775 82.9311 164.125 85.9851 169.7C89.0746 175.24 90.6193 181.632 90.6193 188.876C90.6193 196.121 89.0568 202.513 85.9318 208.053C82.8068 213.592 78.2791 217.907 72.3487 220.996C66.4538 224.086 59.3161 225.631 50.9354 225.631H23.5028V207.147H47.2067C51.6456 207.147 55.3033 206.384 58.1797 204.857C61.0916 203.294 63.2578 201.146 64.6783 198.411C66.1342 195.641 66.8622 192.463 66.8622 188.876C66.8622 185.254 66.1342 182.094 64.6783 179.395C63.2578 176.661 61.0916 174.548 58.1797 173.056C55.2678 171.529 51.5746 170.766 47.1001 170.766H31.5462V261H8.48153ZM136.165 151.909V261H113.101V151.909H136.165ZM162.642 261V151.909H185.706V241.984H232.475V261H162.642ZM255.249 261V151.909H278.314V241.984H325.082V261H255.249ZM407.036 183.283C406.61 178.987 404.781 175.648 401.55 173.269C398.318 170.89 393.933 169.7 388.393 169.7C384.629 169.7 381.45 170.233 378.858 171.298C376.266 172.328 374.277 173.766 372.892 175.613C371.543 177.46 370.868 179.555 370.868 181.898C370.797 183.852 371.205 185.556 372.093 187.012C373.016 188.468 374.277 189.729 375.875 190.794C377.473 191.824 379.32 192.729 381.415 193.511C383.51 194.256 385.747 194.896 388.126 195.428L397.928 197.772C402.686 198.837 407.054 200.258 411.031 202.033C415.009 203.809 418.453 205.993 421.365 208.585C424.277 211.178 426.532 214.232 428.13 217.747C429.763 221.263 430.598 225.293 430.634 229.839C430.598 236.515 428.893 242.303 425.52 247.204C422.182 252.069 417.352 255.851 411.031 258.55C404.746 261.213 397.164 262.545 388.286 262.545C379.479 262.545 371.809 261.195 365.275 258.496C358.776 255.798 353.698 251.803 350.04 246.511C346.418 241.185 344.518 234.597 344.341 226.749H366.66C366.908 230.407 367.956 233.461 369.803 235.911C371.685 238.326 374.188 240.155 377.313 241.398C380.474 242.605 384.043 243.209 388.02 243.209C391.926 243.209 395.317 242.641 398.194 241.504C401.106 240.368 403.361 238.788 404.959 236.763C406.557 234.739 407.356 232.413 407.356 229.786C407.356 227.335 406.628 225.276 405.172 223.607C403.751 221.937 401.656 220.517 398.886 219.345C396.152 218.173 392.796 217.108 388.819 216.149L376.94 213.166C367.743 210.929 360.481 207.431 355.154 202.673C349.827 197.914 347.182 191.504 347.217 183.443C347.182 176.838 348.94 171.067 352.491 166.131C356.077 161.195 360.996 157.342 367.246 154.572C373.496 151.803 380.598 150.418 388.553 150.418C396.649 150.418 403.716 151.803 409.753 154.572C415.825 157.342 420.548 161.195 423.922 166.131C427.295 171.067 429.036 176.785 429.142 183.283H407.036ZM466.485 262.385C462.969 262.385 459.951 261.142 457.43 258.656C454.944 256.135 453.701 253.116 453.701 249.601C453.701 246.121 454.944 243.138 457.43 240.652C459.951 238.166 462.969 236.923 466.485 236.923C469.894 236.923 472.877 238.166 475.434 240.652C477.991 243.138 479.269 246.121 479.269 249.601C479.269 251.945 478.665 254.093 477.458 256.046C476.286 257.964 474.741 259.509 472.824 260.68C470.906 261.817 468.793 262.385 466.485 262.385Z" fill="#FF8A15"/>
</g>
<defs>
<filter id="filter0_d_1_67" x="0.326706" y="0.417608" width="482.942" height="270.127" filterUnits="userSpaceOnUse" color-interpolation-filters="sRGB">
<feFlood flood-opacity="0" result="BackgroundImageFix"/>
<feColorMatrix in="SourceAlpha" type="matrix" values="0 0 0 0 0 0 0 0 0 0 0 0 0 0 0 0 0 0 127 0" result="hardAlpha"/>
<feOffset dy="4"/>
<feGaussianBlur stdDeviation="2"/>
<feComposite in2="hardAlpha" operator="out"/>
<feColorMatrix type="matrix" values="0 0 0 0 0 0 0 0 0 0 0 0 0 0 0 0 0 0 0.25 0"/>
<feBlend mode="normal" in2="BackgroundImageFix" result="effect1_dropShadow_1_67"/>
<feBlend mode="normal" in="SourceGraphic" in2="effect1_dropShadow_1_67" result="shape"/>
</filter>
</defs>
</svg>
