<svg width="344" height="319" viewBox="0 0 344 319" fill="none" xmlns="http://www.w3.org/2000/svg">
<g filter="url(#filter0_d_11_17)">
<path d="M22.3189 131.385C18.8033 131.385 15.7848 130.142 13.2635 127.656C10.7777 125.135 9.5348 122.116 9.5348 118.601C9.5348 115.121 10.7777 112.138 13.2635 109.652C15.7848 107.166 18.8033 105.923 22.3189 105.923C25.728 105.923 28.7109 107.166 31.2678 109.652C33.8246 112.138 35.103 115.121 35.103 118.601C35.103 120.945 34.4993 123.093 33.2919 125.046C32.12 126.964 30.5753 128.509 28.6577 129.68C26.7401 130.817 24.6271 131.385 22.3189 131.385ZM104.752 48.1818V65.2273H55.4803V48.1818H104.752ZM66.6664 28.5795H89.3581V104.858C89.3581 106.953 89.6777 108.587 90.3169 109.759C90.9561 110.895 91.8439 111.694 92.9803 112.156C94.1522 112.617 95.5016 112.848 97.0286 112.848C98.0939 112.848 99.1593 112.759 100.225 112.582C101.29 112.369 102.107 112.209 102.675 112.102L106.244 128.988C105.107 129.343 103.509 129.751 101.45 130.213C99.3901 130.71 96.8865 131.012 93.9391 131.119C88.4703 131.332 83.6763 130.604 79.557 128.935C75.4732 127.266 72.2949 124.673 70.0222 121.158C67.7495 117.642 66.6309 113.203 66.6664 107.841V28.5795ZM143.174 130L120.908 48.1818H143.866L156.544 103.153H157.29L170.5 48.1818H193.032L206.455 102.834H207.148L219.612 48.1818H242.517L220.305 130H196.281L182.219 78.544H181.207L167.144 130H143.174ZM297.038 131.598C288.764 131.598 281.609 129.84 275.572 126.325C269.57 122.773 264.936 117.837 261.669 111.516C258.402 105.16 256.768 97.7912 256.768 89.4105C256.768 80.9588 258.402 73.5724 261.669 67.2514C264.936 60.8949 269.57 55.9588 275.572 52.4432C281.609 48.892 288.764 47.1165 297.038 47.1165C305.312 47.1165 312.45 48.892 318.452 52.4432C324.489 55.9588 329.141 60.8949 332.408 67.2514C335.675 73.5724 337.308 80.9588 337.308 89.4105C337.308 97.7912 335.675 105.16 332.408 111.516C329.141 117.837 324.489 122.773 318.452 126.325C312.45 129.84 305.312 131.598 297.038 131.598ZM297.145 114.02C300.909 114.02 304.052 112.955 306.573 110.824C309.094 108.658 310.994 105.71 312.273 101.982C313.587 98.2528 314.244 94.0092 314.244 89.2507C314.244 84.4922 313.587 80.2486 312.273 76.5199C310.994 72.7912 309.094 69.8437 306.573 67.6776C304.052 65.5114 300.909 64.4283 297.145 64.4283C293.345 64.4283 290.149 65.5114 287.557 67.6776C285 69.8437 283.065 72.7912 281.751 76.5199C280.472 80.2486 279.833 84.4922 279.833 89.2507C279.833 94.0092 280.472 98.2528 281.751 101.982C283.065 105.71 285 108.658 287.557 110.824C290.149 112.955 293.345 114.02 297.145 114.02ZM9.0554 310.682V198.182H31.4276V211.925H32.4396C33.4339 209.723 34.8722 207.486 36.7543 205.213C38.6719 202.905 41.1577 200.987 44.2116 199.46C47.3011 197.898 51.1364 197.116 55.7173 197.116C61.6832 197.116 67.1875 198.679 72.2301 201.804C77.2727 204.893 81.3033 209.563 84.3217 215.813C87.3402 222.028 88.8494 229.822 88.8494 239.197C88.8494 248.324 87.3757 256.03 84.4283 262.315C81.5163 268.565 77.5391 273.306 72.4965 276.538C67.4893 279.734 61.8786 281.332 55.6641 281.332C51.2607 281.332 47.5142 280.604 44.4247 279.148C41.3707 277.692 38.8672 275.863 36.9141 273.661C34.9609 271.424 33.4695 269.169 32.4396 266.896H31.7472V310.682H9.0554ZM31.2678 239.091C31.2678 243.956 31.9425 248.2 33.2919 251.822C34.6413 255.444 36.5945 258.267 39.1513 260.291C41.7081 262.28 44.8153 263.274 48.473 263.274C52.1662 263.274 55.2912 262.262 57.848 260.238C60.4048 258.178 62.3402 255.337 63.6541 251.715C65.0036 248.058 65.6783 243.849 65.6783 239.091C65.6783 234.368 65.0213 230.213 63.7074 226.626C62.3935 223.04 60.4581 220.234 57.9013 218.21C55.3445 216.186 52.2017 215.174 48.473 215.174C44.7798 215.174 41.6548 216.151 39.098 218.104C36.5767 220.057 34.6413 222.827 33.2919 226.413C31.9425 230 31.2678 234.226 31.2678 239.091ZM111.477 280V198.182H134.169V280H111.477ZM122.876 187.635C119.503 187.635 116.609 186.516 114.194 184.279C111.815 182.006 110.625 179.29 110.625 176.129C110.625 173.004 111.815 170.323 114.194 168.086C116.609 165.813 119.503 164.677 122.876 164.677C126.25 164.677 129.126 165.813 131.506 168.086C133.92 170.323 135.128 173.004 135.128 176.129C135.128 179.29 133.92 182.006 131.506 184.279C129.126 186.516 126.25 187.635 122.876 187.635ZM182.538 170.909V280H159.846V170.909H182.538ZM230.907 170.909V280H208.216V170.909H230.907ZM324.66 221.513L303.886 222.791C303.531 221.016 302.767 219.418 301.595 217.997C300.423 216.541 298.879 215.387 296.961 214.535C295.079 213.647 292.824 213.203 290.196 213.203C286.681 213.203 283.715 213.949 281.301 215.44C278.886 216.896 277.678 218.849 277.678 221.3C277.678 223.253 278.46 224.904 280.022 226.254C281.585 227.603 284.266 228.686 288.066 229.503L302.874 232.486C310.828 234.119 316.759 236.747 320.665 240.369C324.571 243.991 326.524 248.75 326.524 254.645C326.524 260.007 324.944 264.712 321.784 268.761C318.659 272.809 314.362 275.969 308.893 278.242C303.46 280.479 297.192 281.598 290.09 281.598C279.259 281.598 270.629 279.343 264.202 274.833C257.81 270.288 254.063 264.109 252.963 256.296L275.281 255.124C275.956 258.427 277.59 260.948 280.182 262.688C282.774 264.393 286.095 265.245 290.143 265.245C294.12 265.245 297.316 264.482 299.731 262.955C302.181 261.392 303.424 259.386 303.46 256.935C303.424 254.876 302.554 253.189 300.85 251.875C299.145 250.526 296.517 249.496 292.966 248.786L278.797 245.962C270.807 244.364 264.859 241.594 260.953 237.653C257.082 233.711 255.146 228.686 255.146 222.578C255.146 217.322 256.567 212.795 259.408 208.995C262.284 205.195 266.315 202.266 271.499 200.206C276.72 198.146 282.828 197.116 289.823 197.116C300.157 197.116 308.289 199.3 314.22 203.668C320.186 208.036 323.666 213.984 324.66 221.513Z" fill="#FF8A15"/>
</g>
<defs>
<filter id="filter0_d_11_17" x="5.0554" y="28.5795" width="336.253" height="290.102" filterUnits="userSpaceOnUse" color-interpolation-filters="sRGB">
<feFlood flood-opacity="0" result="BackgroundImageFix"/>
<feColorMatrix in="SourceAlpha" type="matrix" values="0 0 0 0 0 0 0 0 0 0 0 0 0 0 0 0 0 0 127 0" result="hardAlpha"/>
<feOffset dy="4"/>
<feGaussianBlur stdDeviation="2"/>
<feComposite in2="hardAlpha" operator="out"/>
<feColorMatrix type="matrix" values="0 0 0 0 0 0 0 0 0 0 0 0 0 0 0 0 0 0 0.25 0"/>
<feBlend mode="normal" in2="BackgroundImageFix" result="effect1_dropShadow_11_17"/>
<feBlend mode="normal" in="SourceGraphic" in2="effect1_dropShadow_11_17" result="shape"/>
</filter>
</defs>
</svg>
